<svg xmlns="http://www.w3.org/2000/svg" width="25.371" height="24.115" viewBox="0 0 25.371 24.115">
  <g id="sydney-opera-house" transform="translate(0 -12.676)">
    <g id="Group_786" data-name="Group 786" transform="translate(0 12.676)">
      <path id="Path_275" data-name="Path 275" d="M24.945,23.389,22.8,21.436c-6.772-6.231-.879-.835-6.651-6.061l-2.588-2.359a1.3,1.3,0,0,0-1.753,0L.426,23.389A1.3,1.3,0,0,0,1.3,25.652H3.121V36.044a.746.746,0,0,0,.746.746h6.239a.746.746,0,0,0,.746-.746v-6.31h3.667v6.31a.746.746,0,0,0,.746.746H21.5a.746.746,0,0,0,.746-.746V25.652h1.818a1.3,1.3,0,0,0,.876-2.263Zm-3.441.77a.746.746,0,0,0-.746.746V35.3H16.011v-6.31a.746.746,0,0,0-.746-.746H10.106a.746.746,0,0,0-.746.746V35.3H4.613V24.906a.746.746,0,0,0-.746-.746H1.8l10.89-9.922,3.708,3.379,5.159,4.7,2.022,1.842Z" transform="translate(0 -12.676)" fill="#fff"/>
    </g>
  </g>
</svg>
